<?xml version="1.0" standalone="no"?><!DOCTYPE svg PUBLIC "-//W3C//DTD SVG 1.1//EN" "http://www.w3.org/Graphics/SVG/1.1/DTD/svg11.dtd"><svg t="1567048763386" class="icon" viewBox="0 0 1024 1024" version="1.1" xmlns="http://www.w3.org/2000/svg" p-id="1953" xmlns:xlink="http://www.w3.org/1999/xlink" width="128" height="128"><defs><style type="text/css"></style></defs><path d="M1013.894827 321.263502L521.750756 3.456a17.9712 17.9712 0 0 0-19.503218 0L10.105173 321.263502a17.974613 17.974613 0 0 0 0 30.19776L180.218311 461.314276c-0.178062 1.018311-0.287858 2.058809-0.287858 3.12832v207.914097c0 40.154453 36.768996 76.372196 103.532089 101.98528 61.330204 23.526969 142.491307 36.486258 228.536889 36.486258s167.209529-12.95872 228.539165-36.486258c66.763093-25.613084 103.532089-61.831396 103.532088-101.98528V464.442596c0-1.069511-0.109796-2.10944-0.290133-3.12832l59.938133-38.704925v332.967253c-18.743751 7.243093-32.096142 25.407716-32.096142 46.675627 0 20.610844 12.525227 38.34368 30.358187 46.012302l-34.858667 153.194383a17.976889 17.976889 0 0 0 3.474774 15.200711 17.973476 17.973476 0 0 0 14.04928 6.760106h74.140444c9.926542 0 17.973476-8.044089 17.973476-17.973475 0-1.860836-0.281031-3.656249-0.807823-5.345849l-34.54976-151.835307c17.833529-7.668053 30.357049-25.400889 30.357049-46.012302 0-21.267911-13.351253-39.431964-32.095004-46.675627v-356.181333l74.230329-47.934578c5.125689-3.309796 8.222151-8.99584 8.222151-15.09888s-3.096462-11.789084-8.222151-15.09888z m-92.203805 495.110827c-7.78752 0-14.121529-6.334009-14.121529-14.122098 0-7.785244 6.334009-14.122098 14.121529-14.122098s14.122098 6.337422 14.122098 14.122098c0 7.788089-6.334009 14.122098-14.122098 14.122098z m-14.523164 171.097884l14.523164-63.819093 14.523165 63.819093h-29.046329z m-99.044694-315.11552c0 48.494364-121.613084 102.524587-296.124302 102.524587-174.508373 0-296.122027-54.030222-296.122026-102.524587V484.340622l286.370702 184.92928a17.9456 17.9456 0 0 0 9.751324 2.876302 17.954133 17.954133 0 0 0 9.751894-2.876302l286.372977-184.92928v188.016071z m-296.124302-39.580444L52.987449 336.361813 511.998862 39.949084l459.013689 296.413298-459.013689 296.413867z" p-id="1954"></path><path d="M448.247467 336.361813c0 35.154489 28.599751 63.75424 63.751395 63.75424 35.154489 0 63.75424-28.599751 63.75424-63.75424 0-35.152782-28.599751-63.751396-63.75424-63.751395-35.151644 0-63.751396 28.598613-63.751395 63.751395z m91.558684 0c0 15.333262-12.474027 27.807289-27.807289 27.807289-15.332693 0-27.805013-12.474027-27.805013-27.807289 0-15.331556 12.47232-27.805013 27.805013-27.805013 15.333262 0 27.807289 12.473458 27.807289 27.805013z" p-id="1955"></path></svg>