<?xml version="1.0" standalone="no"?><!DOCTYPE svg PUBLIC "-//W3C//DTD SVG 1.1//EN" "http://www.w3.org/Graphics/SVG/1.1/DTD/svg11.dtd"><svg t="1570438722814" class="icon" viewBox="0 0 1024 1024" version="1.1" xmlns="http://www.w3.org/2000/svg" p-id="1003" width="128" height="128" xmlns:xlink="http://www.w3.org/1999/xlink"><defs><style type="text/css"></style></defs><path d="M944.38 720.735c0 16.308-13.512 29.819-29.819 29.819l-89.458 0c0 65.695-53.115 119.277-119.277 119.277-65.695 0-119.277-53.582-119.277-119.277L407.633 750.554c0 65.695-53.116 119.277-119.277 119.277-66.162 0-119.277-53.582-119.277-119.277l-59.639 0c-16.308 0-29.819-13.512-29.819-29.819s13.512-29.819 29.819-29.819L109.44 497.091c0-16.308 9.318-39.138 20.967-50.786l92.253-92.254c11.648-11.648 34.479-20.967 50.786-20.967l74.549 0L347.995 183.987c0-16.308 13.512-29.819 29.819-29.819l536.747 0c16.308 0 29.819 13.512 29.819 29.819L944.38 720.735zM347.994 512 347.994 392.723l-73.617 0c-2.795 0.466-7.92 2.33-10.25 4.193l-90.855 90.856c-1.398 2.329-3.728 7.454-4.193 10.25L169.079 512 347.994 512zM288.355 690.916c-33.081 0-59.639 26.558-59.639 59.639s26.558 59.639 59.639 59.639 59.639-26.558 59.639-59.639S321.437 690.916 288.355 690.916zM825.103 347.994c0-8.387-6.523-14.91-14.91-14.91L705.825 333.084 705.825 228.717c0-8.387-6.523-14.91-14.91-14.91l-89.457 0c-8.387 0-14.91 6.523-14.91 14.91l0 104.367L482.181 333.084c-8.387 0-14.909 6.523-14.909 14.91l0 89.458c0 8.387 6.522 14.909 14.909 14.909l104.367 0 0 104.367c0 8.387 6.523 14.91 14.91 14.91l89.457 0c8.387 0 14.91-6.523 14.91-14.91L705.825 452.361l104.367 0c8.387 0 14.91-6.522 14.91-14.909L825.102 347.994zM705.825 690.916c-33.081 0-59.639 26.558-59.639 59.639s26.558 59.639 59.639 59.639 59.639-26.558 59.639-59.639S738.906 690.916 705.825 690.916z" p-id="1004"></path></svg>