<?xml version="1.0" standalone="no"?><!DOCTYPE svg PUBLIC "-//W3C//DTD SVG 1.1//EN" "http://www.w3.org/Graphics/SVG/1.1/DTD/svg11.dtd"><svg t="1570432526330" class="icon" viewBox="0 0 1240 1024" version="1.1" xmlns="http://www.w3.org/2000/svg" p-id="6298" width="155" height="128" xmlns:xlink="http://www.w3.org/1999/xlink"><defs><style type="text/css"></style></defs><path d="M1204.473463 428.464687l-425.75313 155.565879C757.531455 591.700397 735.993947 616.453036 735.993947 638.920219l0 356.104861c0 22.467184 22.389711 34.436769 43.501116 26.495782l425.327029-158.89722C1225.933497 854.682656 1239.568754 829.89128 1239.568754 807.424097l0-352.192472C1239.568754 432.764441 1225.662342 420.717382 1204.473463 428.464687z" p-id="6299"></path><path d="M424.9784 138.986646 136.972347 244.659883c-20.065519 7.321203-23.900435 25.566106-8.676981 40.479667l107.919955 105.557027c15.339663 14.913562 43.888481 20.336675 63.605372 12.163268l292.460753-121.865103c19.678154-8.173406 22.467184-26.18589 6.120371-39.937356l-107.338907-90.411046C474.754833 136.856138 445.005183 131.626707 424.9784 138.986646z" p-id="6300"></path><path d="M628.422622 302.764668c-6.004161 5.578059-12.899262 10.497598-21.266351 13.945148l-292.499489 121.90384c-10.768754 4.493437-22.699603 6.778892-35.405183 6.778892-0.735994 0-1.355778-0.193683-2.053036-0.193683-25.875998-0.193683-51.209684-10.342652-68.137545-26.844411L133.950898 346.808095c0 0-56.477851 13.906412-56.477851 63.721581l0 97.306147c0 21.266351 25.372423 46.90993 44.275846 56.82648L697.257424 864.095631l0-225.175411c0-41.603026 34.669189-79.138718 68.176281-91.301986l204.218952-74.606544L628.422622 302.764668z" p-id="6301"></path><path d="M38.736524 507.797087l0-97.306147c0-51.093475 36.373596-80.610706 66.161982-94.091016L101.218536 312.836164C84.213202 296.256932 77.046945 274.796898 81.540382 253.956648c4.4547-20.84025 19.8331-37.496955 42.067865-45.631625l288.044789-105.711973c10.303915-3.796179 21.73119-5.694269 33.894458-5.694269 20.72404 0 41.370607 5.771742 58.027312 15.572082L503.574806 29.129866c0-22.467184-13.906412-34.514242-35.09529-26.766938L42.726385 157.89007C21.537507 165.598638 0 190.351277 0 212.81846l0 356.104861c0 22.467184 22.389711 34.436769 43.501116 26.495782l36.10244-13.48031C58.918252 564.119992 38.736524 537.314318 38.736524 507.797087z" p-id="6302"></path></svg>