<?xml version="1.0" standalone="no"?><!DOCTYPE svg PUBLIC "-//W3C//DTD SVG 1.1//EN" "http://www.w3.org/Graphics/SVG/1.1/DTD/svg11.dtd"><svg t="1572504010288" class="icon" viewBox="0 0 1024 1024" version="1.1" xmlns="http://www.w3.org/2000/svg" p-id="4133" width="128" height="128" xmlns:xlink="http://www.w3.org/1999/xlink"><defs><style type="text/css"></style></defs><path d="M440.264 649.085h-269.008c3.723-64.18 89.408-54.836 101.299-88.113 0.998-11.395 0.629-19.337 0.629-29.752-4.973-2.716-14.219-19.966-15.713-34.545-3.922-0.323-10.037-4.272-11.854-19.912-0.98-8.391 2.887-13.104 5.216-14.579-13.167-52.794-5.936-98.879 54.314-100.039 15.020 0 26.595 4.173 31.118 12.429 43.944 6.359 30.732 67.761 24.41 87.609 2.329 1.475 6.188 6.188 5.225 14.579-1.825 15.64-7.951 19.589-11.862 19.912-1.52 14.579-10.397 31.83-15.353 34.545 0 10.415-0.369 18.357 0.612 29.752 11.908 33.277 97.251 23.932 100.965 88.113z" p-id="4134"></path><path d="M870.731 451.812c0 9.938-8.050 17.988-17.988 17.988h-322.809c-9.938 0-17.988-8.050-17.988-17.988 0-9.929 8.050-17.988 17.988-17.988h322.809c9.938 0 17.988 8.059 17.988 17.988z" p-id="4135"></path><path d="M870.731 541.482c0 9.938-8.050 17.988-17.988 17.988h-322.809c-9.938 0-17.988-8.050-17.988-17.988 0-9.929 8.050-17.988 17.988-17.988h322.809c9.938 0 17.988 8.059 17.988 17.988z" p-id="4136"></path><path d="M870.731 631.152c0 9.938-8.050 17.988-17.988 17.988h-322.809c-9.938 0-17.988-8.050-17.988-17.988 0-9.929 8.050-17.988 17.988-17.988h322.809c9.938 0 17.988 8.059 17.988 17.988z" p-id="4137"></path><path d="M960.409 290.409v502.157c0 29.689-24.167 53.856-53.856 53.856h-71.744c-9.929 0-17.988-8.059-17.988-17.988 0-9.938 8.059-17.988 17.988-17.988h71.744c9.857 0 17.88-8.023 17.88-17.88v-502.157c0-9.857-8.023-17.88-17.88-17.88h-394.553c-9.938 0-17.988-8.050-17.988-17.988v-35.867c0-9.857-8.023-17.88-17.88-17.88h-358.686c-9.857 0-17.88 8.022-17.88 17.88v573.892c0 9.857 8.023 17.88 17.88 17.88h89.624v-53.748c0-9.938 8.050-17.988 17.988-17.988h71.736c9.929 0 17.988 8.050 17.988 17.988 0 9.929-8.059 17.988-17.988 17.988h-53.748v53.748c0 9.929-8.059 17.988-17.988 17.988h-107.613c-29.689 0-53.856-24.166-53.856-53.856v-573.892c0-29.698 24.166-53.856 53.856-53.856h358.686c29.698 0 53.856 24.158 53.856 53.856v17.88h376.566c29.689 0 53.856 24.158 53.856 53.856z" p-id="4138"></path><path d="M816.929 756.697c0 9.929-8.050 17.988-17.988 17.988h-53.748v53.748c0 9.929-8.050 17.988-17.988 17.988h-394.544c-9.938 0-17.988-8.059-17.988-17.988 0-9.938 8.050-17.988 17.988-17.988h376.557v-53.748c0-9.938 8.059-17.988 17.988-17.988h71.736c9.938 0 17.988 8.050 17.988 17.988z" p-id="4139"></path></svg>