<?xml version='1.0' encoding='utf-8'?>
<!DOCTYPE svg PUBLIC '-//W3C//DTD SVG 1.1//EN' 'http://www.w3.org/Graphics/SVG/1.1/DTD/svg11.dtd'>
<svg version="1.1" xmlns="http://www.w3.org/2000/svg" viewBox="0 0 512 512" xmlns:xlink="http://www.w3.org/1999/xlink" enable-background="new 0 0 512 512">
  <g>
    <g>
      <path d="m495.6,434.7l-112.6-198.5-2.7-100.1h4.3c11.3,0 20.4-9.1 20.4-20.4 0-11.3-9.1-20.4-20.4-20.4h-165.2c-11.3,0-20.4,9.1-20.4,20.4 0,11.3 9.1,20.4 20.4,20.4h4.3l-2.9,100.4-33.8,59.7v-244.5h6c11.3,1.42109e-14 20.4-9.1 20.4-20.4 0-11.3-9.1-20.4-20.4-20.4h-26.4-108.6-26.4c-11.3,0-20.4,9.1-20.4,20.4 0,11.3 9.1,20.4 20.4,20.4h6v290c0,41.2 33.5,74.7 74.7,74.7 2.2,0 4.5-0.1 6.7-0.3l-10.6,18.6c-7.4,13-7.3,28.5 0.2,41.4 8.9,15.2 26.5,24.7 46.1,24.7h294.6c19.6,0 37.2-9.5 46.1-24.7 7.5-12.9 7.6-28.4 0.2-41.4zm-349.4-383v116.6h-67.8v-116.6h67.8zm-67.8,290v-132.6h67.8v132.6c0,18.7-15.2,33.9-33.9,33.9-18.7-0.1-33.9-15.3-33.9-33.9zm370.9,118.3h-294.6c-7.4,0-10.8-3.9-10.8-5.1l112.5-198.1c3.4-6 5.3-12.7 5.5-19.4l2.8-101.2h74.8l2.8,101.2c0.2,6.7 2.1,13.4 5.5,19.4l112.7,198.4c-0.4,0.9-3.8,4.8-11.2,4.8z"/>
    </g>
  </g>
</svg>
