<?xml version="1.0" standalone="no"?><!DOCTYPE svg PUBLIC "-//W3C//DTD SVG 1.1//EN" "http://www.w3.org/Graphics/SVG/1.1/DTD/svg11.dtd"><svg t="1567050398759" class="icon" viewBox="0 0 1188 1024" version="1.1" xmlns="http://www.w3.org/2000/svg" p-id="561" xmlns:xlink="http://www.w3.org/1999/xlink" width="148.5" height="128"><defs><style type="text/css"></style></defs><path d="M566.920533 964.413167 566.445534 480.858289C525.262029 519.296177 442.996326 596.077431 442.996326 596.077431 423.702528 614.085072 393.463671 613.042353 375.456017 593.74846 357.448363 574.454552 358.491068 544.215682 377.785003 526.208041L572.568371 344.41018C596.457882 322.113263 633.902012 322.093288 657.812958 344.41018L852.596326 526.208041C871.890261 544.215682 872.932966 574.454552 854.925312 593.74846 836.917794 613.042353 806.678801 614.085072 787.385003 596.077431 787.385003 596.077431 703.586577 517.865609 661.611861 478.689266L661.611861 964.406463C661.611861 990.818222 640.137353 1012.229188 613.739042 1012.229188 588.408559 1012.229188 566.950707 990.821499 566.920533 964.413167ZM955.733333 778.24C1083.922295 778.24 1187.84 674.322309 1187.84 546.133333 1187.84 448.328458 1133.226667 354.986667 1040.331571 330.490088 947.436339 305.993523 960.785067 309.930831 960.785067 309.930831 960.785067 309.930831 963.048243 327.521062 952.564122 245.680538 942.08 163.84 861.520009 95.573333 771.413333 95.573333 745.484015 95.573333 720.805205 100.927433 698.422067 110.590389L658.445926 134.238249 616.171793 79.810669C566.769801 30.494474 498.572766 0 423.253333 0 272.442846 0 150.186667 122.256111 150.186667 273.066667 150.186667 291.517167 152.016486 309.540277 155.504777 326.964415 64.954641 358.610179 0 444.786265 0 546.133333 0 669.738953 96.619452 770.777894 218.453333 778.24L429.984017 778.24C456.428885 778.24 477.866667 756.817688 477.866667 730.511729 477.866667 704.152125 456.465886 682.788687 430.172023 682.795117L224.296141 682.84543C152.205858 678.430037 95.573333 618.548948 95.573333 546.133333 95.573333 487.622219 132.723371 436.16798 187.035921 417.186625L214.05382 407.744321C242.413295 397.833148 260.749858 365.804599 254.836736 336.267059L249.218662 308.203588C246.92695 296.756401 245.76 285.014521 245.76 273.066667 245.76 175.039802 325.226496 95.573333 423.253333 95.573333 486.790622 95.573333 544.392943 129.15058 576.18746 182.898237L603.637214 229.301576C619.017557 255.301523 650.699025 261.270624 674.492279 242.790291L717.071838 209.718504C732.530961 197.711353 751.344708 191.146667 771.413333 191.146667 820.426752 191.146667 860.16 230.879901 860.16 279.893333 860.16 285.535095 859.645542 291.061146 858.636425 296.447003L847.473323 356.026586C841.925973 385.63429 861.84919 409.635594 891.974042 409.630761L952.590336 409.621053C1030.853427 409.608506 1092.266667 470.44608 1092.266667 546.133333 1092.266667 621.538604 1031.138645 682.666667 955.733333 682.666667L757.649681 682.715081C731.318818 682.721512 709.973333 704.161778 709.973333 730.483371 709.973333 756.858621 731.352951 778.24 757.649681 778.24L955.733333 778.24 955.733333 778.24Z" p-id="562"></path></svg>