<?xml version="1.0" standalone="no"?><!DOCTYPE svg PUBLIC "-//W3C//DTD SVG 1.1//EN" "http://www.w3.org/Graphics/SVG/1.1/DTD/svg11.dtd"><svg t="1567050403058" class="icon" viewBox="0 0 1087 1024" version="1.1" xmlns="http://www.w3.org/2000/svg" p-id="684" xmlns:xlink="http://www.w3.org/1999/xlink" width="135.875" height="128"><defs><style type="text/css"></style></defs><path d="M562.361069 449.560976C538.17856 449.560976 518.552476 469.141179 518.524878 493.295141L518.090427 873.13192C480.422587 837.975315 405.179567 767.748546 405.179567 767.748546 387.5328 751.278155 359.875309 752.231861 343.404894 769.878715 326.934478 787.52557 327.888172 815.183073 345.535063 831.653476L523.690583 997.93202C545.540745 1018.325541 579.788425 1018.343811 601.658193 997.93202L779.813713 831.653476C797.460605 815.183073 798.414299 787.52557 781.943883 769.878715 765.473592 752.231861 737.815977 751.278155 720.16921 767.748546 720.16921 767.748546 643.524308 839.283749 605.1328 875.115782L605.1328 493.30126C605.1328 469.144176 585.491481 449.560976 561.346685 449.560976L562.361069 449.560976 562.361069 449.560976ZM874.146341 711.804878C991.392343 711.804878 1086.439024 616.75821 1086.439024 499.512195 1086.439024 410.056517 1036.487805 324.682927 951.522779 302.27752 866.557627 279.872125 878.766829 283.473321 878.766829 283.473321 878.766829 283.473321 880.836808 299.561947 871.247672 224.707809 861.658537 149.853659 787.975618 87.414634 705.560976 87.414634 681.845136 87.414634 659.273054 92.311677 638.800671 101.149746L602.237128 122.778886 563.571762 72.997563C518.387013 27.891287 456.011676 0 387.121951 0 249.18553 0 137.365854 111.819614 137.365854 249.756098 137.365854 266.631555 139.039469 283.116107 142.229979 299.052819 59.409733 327.997115 0 406.816706 0 499.512195 0 612.566116 88.37145 704.979781 199.804878 711.804878L393.278064 711.804878C417.465444 711.804878 437.073171 692.2113 437.073171 668.150971 437.073171 644.041578 417.499286 624.501847 393.450021 624.507729L205.148909 624.553747C139.212675 620.515278 87.414634 565.745989 87.414634 499.512195 87.414634 445.995932 121.393327 398.934128 171.06944 381.573132L195.780933 372.936879C221.719477 363.871781 238.490724 334.577377 233.08238 307.561335L227.943899 281.893526C225.84782 271.423538 224.780488 260.684013 224.780488 249.756098 224.780488 160.09738 297.463259 87.414634 387.121951 87.414634 445.235325 87.414634 497.920375 118.125531 527.000726 167.284973L552.107208 209.727051C566.174595 233.50749 595.151547 238.967034 616.91367 222.06429L655.858388 191.815705C669.99783 180.833555 687.205526 174.829268 705.560976 174.829268 750.390322 174.829268 786.731707 211.170641 786.731707 256 786.731707 261.160148 786.261167 266.214462 785.338193 271.140552L775.128039 325.634073C770.054244 352.71429 788.276699 374.666702 815.829916 374.662281L871.271649 374.653403C942.853744 374.641926 999.02439 430.286049 999.02439 499.512195 999.02439 568.480431 943.114615 624.390244 874.146341 624.390244L692.972269 624.434526C668.889163 624.440407 649.365854 644.050407 649.365854 668.125034 649.365854 692.248738 668.920382 711.804878 692.972269 711.804878L874.146341 711.804878 874.146341 711.804878Z" p-id="685"></path></svg>