<?xml version="1.0" standalone="no"?><!DOCTYPE svg PUBLIC "-//W3C//DTD SVG 1.1//EN" "http://www.w3.org/Graphics/SVG/1.1/DTD/svg11.dtd"><svg class="icon" width="200px" height="199.80px" viewBox="0 0 1025 1024" version="1.1" xmlns="http://www.w3.org/2000/svg"><path d="M764.775552 302.780921c-25.795581 0-50.533967 3.805905-74.003717 10.783399l0-239.560603-202.558745 0 15.223622-74.003717-313.775759 0 14.377865 74.003717-204.038819 0 0 949.996283 690.771836 0 0-213.553582c23.46975 6.977493 48.208135 10.783399 74.003717 10.783399 143.77865 0 259.224448-117.771629 259.224448-259.224448 0.211439-141.664258-115.234359-259.224448-259.224448-259.224448zm-313.775759-259.435887l-21.778237 104.662399-165.556886 0-19.663845-104.662399 206.998968 0zm196.215569 937.098493l-603.658889 0 0-862.883337 168.728474 0 14.377865 74.003717 237.446211 0 15.223622-74.003717 167.882717 0 0 213.553582c-57.088581 29.390047-101.91369 79.289696-124.749122 139.549866l-419.918233 0 0 43.345034 407.44332 0c-2.960149 15.6465-4.440223 31.504439-4.440223 47.996696 0 28.121412 4.651662 55.185629 12.897791 80.558332l-415.900888 0 0 43.556473 434.930415 0c24.949824 45.459426 63.220318 82.884163 109.73694 106.776791l0 187.546562zm117.56019-204.884576c-119.886021 0-215.667974-98.107784-215.667974-215.667974 0-117.771629 98.107784-215.667974 215.667974-215.667974 119.886021 0 215.667974 98.107784 215.667974 215.667974 0.211439 117.56019-95.781953 215.667974-215.667974 215.667974z" fill="#2c2c2c" /><path d="M102.548007 300.45509l488.001652 0 0 43.556473-488.001652 0 0-43.556473Z" fill="#2c2c2c" /><path d="M102.548007 812.560809l488.001652 0 0 43.556473-488.001652 0 0-43.556473Z" fill="#2c2c2c" /><path d="M631.991741 538.11274l268.104894 0 0 43.556473-268.104894 0 0-43.556473Z" fill="#2c2c2c" /></svg>