<?xml version="1.0" standalone="no"?><!DOCTYPE svg PUBLIC "-//W3C//DTD SVG 1.1//EN" "http://www.w3.org/Graphics/SVG/1.1/DTD/svg11.dtd"><svg t="1570433034985" class="icon" viewBox="0 0 1074 1024" version="1.1" xmlns="http://www.w3.org/2000/svg" p-id="13171" xmlns:xlink="http://www.w3.org/1999/xlink" width="134.25" height="128"><defs><style type="text/css"></style></defs><path d="M1073.714286 544q0 17.714286-17.714286 37.714286l-192 226.285714q-24.571429 29.142857-68.857143 49.428571t-82 20.285714l-621.714286 0q-19.428571 0-34.571429-7.428571t-15.142857-24.571429q0-17.714286 17.714286-37.714286l192-226.285714q24.571429-29.142857 68.857143-49.428571t82-20.285714l621.714286 0q19.428571 0 34.571429 7.428571t15.142857 24.571429zm-196-196.571429l0 91.428571-475.428571 0q-53.714286 0-112.571429 27.142857t-93.714286 68.285714l-192.571429 226.285714-2.857143 3.428571q0-2.285714 2.857143-7.142857t2.857143-7.142857l0-548.571429q0-52.571429 37.714286-90.285714t90.285714-37.714286l182.857143 0q52.571429 0 90.285714 37.714286t37.714286 90.285714l0 18.285714 310.857143 0q52.571429 0 90.285714 37.714286t37.714286 90.285714z" p-id="13172"></path></svg>