<?xml version="1.0" standalone="no"?><!DOCTYPE svg PUBLIC "-//W3C//DTD SVG 1.1//EN" "http://www.w3.org/Graphics/SVG/1.1/DTD/svg11.dtd"><svg t="1566358926847" class="icon" viewBox="0 0 1024 1024" version="1.1" xmlns="http://www.w3.org/2000/svg" p-id="10438" xmlns:xlink="http://www.w3.org/1999/xlink" width="200" height="200"><defs><style type="text/css"></style></defs><path d="M505.984 278.336c75.696 0 137.088-61.392 137.088-137.088 0-75.696-61.392-137.056-137.088-137.056-75.712 0-137.12 61.376-137.12 137.056 0 75.696 61.392 137.088 137.12 137.088z" p-id="10439"></path><path d="M686.864 320.048c-22.464 0-90.496 0-161.392 0l0 128 29.68 7.264 0-29.68c0-19.28 17.568-36.784 49.632-15.232 45.168 30.448 93.792 203.392 41.056 196.576-25.456-3.248-39.84-15.6-67.872-17.168-22.768-1.168-22.768-10.96-22.8-23.84-0.032-12.88 0-54.224 0-54.224l0-23.04c-9.616-2.32-20.752-5.024-29.68-7.248l0 158.288c0 0 44.496-30.256 76.32-5.6 20.064 15.6 32.624 60.496-29.44 97.088-14.32 8.72-92.288 29.344-116.752-16.576l-27.6 0c-12.448 0-22.528 10.176-22.528 22.608s10.096 22.576 22.528 22.576l163.44 0c25.824 0 46.848 21.024 46.848 46.88 0 25.856-21.024 46.848-46.848 46.848l-169.12 0c-5.76 0-10.496 4.72-10.496 10.56 0 5.792 4.736 10.496 10.496 10.496l169.12 0c25.824 0 46.848 21.024 46.848 46.88s-21.024 46.848-46.848 46.848l-197.792 0c-10.032 0-18.176-8.112-18.176-18.176 0-10.016 8.144-18.176 18.176-18.176l197.792 0c5.76 0 10.496-4.704 10.496-10.496 0-5.808-4.736-10.544-10.496-10.544l-169.12 0c-25.824 0-46.848-21.04-46.848-46.848 0-25.856 21.024-46.912 46.848-46.912l169.12 0c5.76 0 10.496-4.704 10.496-10.496s-4.736-10.528-10.496-10.528l-163.44 0c-32.464 0-58.88-26.432-58.88-58.928 0-32.48 26.416-58.944 58.88-58.944l36.48 0c0.24 0 0.432 0.128 0.672 0.128l12.416 0c12.064 0 11.6-12.768 11.568-12.768l0-182.304c-10.256 2.848-22 6.112-29.648 8.224l0 20.144c0 0 0.032 41.344 0 54.224 0 12.88-0.096 22.672-22.8 23.856-28 1.568-42.384 13.92-67.904 17.168-52.72 6.8-4.064-166.128 41.008-196.592 32.048-21.568 49.696-4.064 49.696 15.232l0 32.256 29.648-8.192 0-129.68c-68.576 0-133.024 0-154.288 0-97.008 0-183.536 78.608-183.536 175.6 0 49.392 0 391.904 0 425.072 0 33.168 26.096 60.064 59.184 60.064 33.168 0 60-26.896 60-60.064 0-38.64 0-383.264 0-383.264l49.696 0 0 464.016 373.664 0 0-464.016 50.224 0c0 0 0 344.624 0 383.264 0 33.168 26.864 60.064 60.016 60.064s59.232-26.896 59.232-60.064c0-33.168 0-375.68 0-425.072-0.016-96.944-79.488-175.552-176.464-175.552z" p-id="10440"></path></svg>