<?xml version="1.0" encoding="iso-8859-1"?>
<!DOCTYPE svg PUBLIC "-//W3C//DTD SVG 1.1//EN" "http://www.w3.org/Graphics/SVG/1.1/DTD/svg11.dtd">
<svg version="1.1" id="Capa_1" xmlns="http://www.w3.org/2000/svg" xmlns:xlink="http://www.w3.org/1999/xlink" x="0px" y="0px"
	 viewBox="0 0 417.416 417.416" style="enable-background:new 0 0 417.416 417.416;" xml:space="preserve" >
<path d="M392.526,38.439c-16.077-16.076-37.451-24.93-60.187-24.93s-44.11,8.854-60.187,24.93L19.295,291.297
	c-25.727,25.727-25.727,67.587,0,93.314c12.863,12.863,29.76,19.295,46.657,19.295c16.896,0,33.793-6.432,46.656-19.295
	l199.146-199.146c18.247-18.247,18.247-47.937,0-66.185c-18.247-18.247-47.938-18.247-66.185,0l-127.94,127.939
	c-3.905,3.905-3.905,10.237,0,14.143s10.238,3.905,14.142,0l127.94-127.939c10.448-10.449,27.451-10.449,37.899,0
	c10.449,10.449,10.449,27.451,0,37.9L98.467,370.469c-17.929,17.928-47.101,17.929-65.03,0
	c-8.685-8.685-13.468-20.232-13.468-32.515s4.783-23.83,13.468-32.515L286.294,52.582c12.299-12.299,28.651-19.072,46.045-19.072
	s33.746,6.773,46.044,19.072c25.389,25.389,25.389,66.7,0,92.089L196.731,326.323c-3.905,3.905-3.905,10.237,0,14.143
	s10.237,3.905,14.143,0l181.652-181.652C425.712,125.626,425.712,71.626,392.526,38.439z"/>
</svg>
