<?xml version="1.0" standalone="no"?><!DOCTYPE svg PUBLIC "-//W3C//DTD SVG 1.1//EN" "http://www.w3.org/Graphics/SVG/1.1/DTD/svg11.dtd"><svg t="1567049461712" class="icon" viewBox="0 0 1024 1024" version="1.1" xmlns="http://www.w3.org/2000/svg" p-id="5150" xmlns:xlink="http://www.w3.org/1999/xlink" width="128" height="128"><defs><style type="text/css"></style></defs><path d="M219.428571 676.571429l0 36.571429q0 7.428571-5.428571 12.857143t-12.857143 5.428571l-36.571429 0q-7.428571 0-12.857143-5.428571t-5.428571-12.857143l0-36.571429q0-7.428571 5.428571-12.857143t12.857143-5.428571l36.571429 0q7.428571 0 12.857143 5.428571t5.428571 12.857143zm0-146.285714l0 36.571429q0 7.428571-5.428571 12.857143t-12.857143 5.428571l-36.571429 0q-7.428571 0-12.857143-5.428571t-5.428571-12.857143l0-36.571429q0-7.428571 5.428571-12.857143t12.857143-5.428571l36.571429 0q7.428571 0 12.857143 5.428571t5.428571 12.857143zm0-146.285714l0 36.571429q0 7.428571-5.428571 12.857143t-12.857143 5.428571l-36.571429 0q-7.428571 0-12.857143-5.428571t-5.428571-12.857143l0-36.571429q0-7.428571 5.428571-12.857143t12.857143-5.428571l36.571429 0q7.428571 0 12.857143 5.428571t5.428571 12.857143zm658.285714 292.571429l0 36.571429q0 7.428571-5.428571 12.857143t-12.857143 5.428571l-548.571429 0q-7.428571 0-12.857143-5.428571t-5.428571-12.857143l0-36.571429q0-7.428571 5.428571-12.857143t12.857143-5.428571l548.571429 0q7.428571 0 12.857143 5.428571t5.428571 12.857143zm0-146.285714l0 36.571429q0 7.428571-5.428571 12.857143t-12.857143 5.428571l-548.571429 0q-7.428571 0-12.857143-5.428571t-5.428571-12.857143l0-36.571429q0-7.428571 5.428571-12.857143t12.857143-5.428571l548.571429 0q7.428571 0 12.857143 5.428571t5.428571 12.857143zm0-146.285714l0 36.571429q0 7.428571-5.428571 12.857143t-12.857143 5.428571l-548.571429 0q-7.428571 0-12.857143-5.428571t-5.428571-12.857143l0-36.571429q0-7.428571 5.428571-12.857143t12.857143-5.428571l548.571429 0q7.428571 0 12.857143 5.428571t5.428571 12.857143zm73.142857 402.285714l0-475.428571q0-7.428571-5.428571-12.857143t-12.857143-5.428571l-841.142857 0q-7.428571 0-12.857143 5.428571t-5.428571 12.857143l0 475.428571q0 7.428571 5.428571 12.857143t12.857143 5.428571l841.142857 0q7.428571 0 12.857143-5.428571t5.428571-12.857143zm73.142857-621.714286l0 621.714286q0 37.714286-26.857143 64.571429t-64.571429 26.857143l-841.142857 0q-37.714286 0-64.571429-26.857143t-26.857143-64.571429l0-621.714286q0-37.714286 26.857143-64.571429t64.571429-26.857143l841.142857 0q37.714286 0 64.571429 26.857143t26.857143 64.571429z" p-id="5151"></path></svg>