<?xml version="1.0" standalone="no"?><!DOCTYPE svg PUBLIC "-//W3C//DTD SVG 1.1//EN" "http://www.w3.org/Graphics/SVG/1.1/DTD/svg11.dtd"><svg t="1566372800573" class="icon" viewBox="0 0 1024 1024" version="1.1" xmlns="http://www.w3.org/2000/svg" p-id="2010" xmlns:xlink="http://www.w3.org/1999/xlink" width="128" height="128"><defs><style type="text/css"></style></defs><path d="M984.423317 1024H39.576683v-887.736753h270.458004v78.333313H117.909996v731.070127h788.180008v-731.070127H713.965313v-78.333313h270.458004v887.736753z" p-id="2011"></path><path d="M730.170517 279.466335h-436.341034V70.916128h162.064281v78.333313h-83.730968v51.883581h279.674408v-51.883581h-82.923156v-78.333313h161.256469v208.550207z" p-id="2012"></path><path d="M647.320799 135.320799h-78.333313a56.999725 56.999725 0 0 0-113.987211 0h-78.333313a135.333038 135.333038 0 0 1 270.653837 0zM255.076524 426.475933l256.710507-1.20927 0.369636 78.333313-256.710508 1.209271zM253.36543 654.952177h511.589974v78.333314H253.36543z" p-id="2013"></path></svg>