<?xml version="1.0" standalone="no"?><!DOCTYPE svg PUBLIC "-//W3C//DTD SVG 1.1//EN" "http://www.w3.org/Graphics/SVG/1.1/DTD/svg11.dtd"><svg t="1566441796734" class="icon" viewBox="0 0 1031 1024" version="1.1" xmlns="http://www.w3.org/2000/svg" p-id="3309" xmlns:xlink="http://www.w3.org/1999/xlink" width="128.875" height="128"><defs><style type="text/css"></style></defs><path d="M825.390428 993.047859H631.939547c-21.924433 0-38.690176-16.765743-38.690177-38.690176V606.146096H438.488665v180.554156c0 14.186398-11.607053 25.793451-25.793451 25.793451s-25.793451-11.607053-25.793451-25.793451V593.24937c0-21.924433 16.765743-38.690176 38.690177-38.690176h180.554156c21.924433 0 38.690176 16.765743 38.690176 38.690176v348.211587h167.657431V502.972292c0-14.186398 11.607053-25.793451 25.793451-25.793451s25.793451 11.607053 25.793451 25.793451v451.385391c0 21.924433-16.765743 38.690176-38.690177 38.690176z" fill="" p-id="3310"></path><path d="M412.695214 993.047859H219.244332c-10.31738 0-20.634761-3.869018-27.083123-11.607053-7.738035-7.738035-11.607053-16.765743-11.607053-27.083123l1.289673-462.992444L29.662469 490.075567c-10.31738 0-20.634761-5.15869-24.503779-14.186398-3.869018-10.31738-1.289673-20.634761 7.738035-27.083124L492.654912 32.241814c14.186398-12.896725 36.110831-11.607053 50.297229 0l479.758186 415.274559c10.31738 9.027708 11.607053 25.793451 2.579346 36.110831-9.027708 10.31738-25.793451 11.607053-36.110832 2.579345L517.15869 79.959698 98.015113 442.357683h98.015114c20.634761 1.289673 37.400504 18.055416 37.400503 38.690176L232.141058 941.460957h180.554156c14.186398 0 25.793451 11.607053 25.793451 25.793451s-11.607053 25.793451-25.793451 25.793451z" fill="" p-id="3311"></path></svg>