<?xml version="1.0" standalone="no"?><!DOCTYPE svg PUBLIC "-//W3C//DTD SVG 1.1//EN" "http://www.w3.org/Graphics/SVG/1.1/DTD/svg11.dtd"><svg t="1566358828025" class="icon" viewBox="0 0 1024 1024" version="1.1" xmlns="http://www.w3.org/2000/svg" p-id="7899" xmlns:xlink="http://www.w3.org/1999/xlink" width="200" height="200"><defs><style type="text/css"></style></defs><path d="M522.624 1024c-41.173333 0-74.666667-33.493333-74.666667-74.666667v-298.666666c0-41.173333 33.493333-74.666667 74.666667-74.666667h85.376v-53.333333c0-41.173333 33.493333-74.666667 74.666667-74.666667h106.666666c41.173333 0 74.666667 33.493333 74.666667 74.666667v53.333333h85.290667c41.173333 0 74.666667 33.493333 74.666666 74.666667v298.666666c0 41.173333-33.493333 74.666667-74.666666 74.666667h-426.666667z m0-384a10.666667 10.666667 0 0 0-10.666667 10.666667v298.666666c0 5.888 4.778667 10.666667 10.666667 10.666667h426.666667a10.666667 10.666667 0 0 0 10.666666-10.666667v-298.666666a10.666667 10.666667 0 0 0-10.666666-10.666667h-426.666667z m277.376-64v-53.333333a10.666667 10.666667 0 0 0-10.666667-10.666667H682.666667a10.666667 10.666667 0 0 0-10.666667 10.666667v53.333333h128z" p-id="7900"></path><path d="M735.957333 896a32 32 0 0 1-32-32v-32h-32a32 32 0 0 1 0-64h32v-32a32 32 0 0 1 64 0V768h32a32 32 0 0 1 0 64h-32v32a32 32 0 0 1-32 32zM319.957333 768a32 32 0 0 1-32-32V482.133333a256.426667 256.426667 0 0 0-224 253.866667 32.042667 32.042667 0 0 1-64-0.042667c0.170667-175.274667 142.634667-318.592 317.824-319.829333a14.890667 14.890667 0 0 1 4.096 0 318.378667 318.378667 0 0 1 123.690667 25.557333 31.786667 31.786667 0 0 1 17.152 17.493334 32 32 0 0 1-29.696 43.946666 31.573333 31.573333 0 0 1-12.544-2.56 255.146667 255.146667 0 0 0-68.522667-18.474666v253.909333a32 32 0 0 1-32 32z" p-id="7901"></path><path d="M319.957333 416a208.213333 208.213333 0 0 1-208-208 207.658667 207.658667 0 0 1 29.226667-105.813333A208.981333 208.981333 0 0 1 319.957333 0c101.717333 0 189.781333 75.690667 205.312 176.213333a32 32 0 0 1 1.066667 7.125334c1.066667 9.045333 1.621333 17.109333 1.621333 24.661333A208.213333 208.213333 0 0 1 319.957333 416z m-139.52-243.754667a144.170667 144.170667 0 0 0 139.52 179.754667 144.213333 144.213333 0 0 0 142.464-123.008 322.389333 322.389333 0 0 1-82.986666 11.008h-1.493334a323.754667 323.754667 0 0 1-197.504-67.754667z m30.250667-57.770666a263.338667 263.338667 0 0 0 167.936 61.525333h0.256c26.709333 0 52.906667-4.053333 78.122667-12.032A144.896 144.896 0 0 0 319.957333 64c-42.112 0-82.005333 18.645333-109.269333 50.474667z" p-id="7902"></path></svg>