<?xml version="1.0" standalone="no"?><!DOCTYPE svg PUBLIC "-//W3C//DTD SVG 1.1//EN" "http://www.w3.org/Graphics/SVG/1.1/DTD/svg11.dtd"><svg t="1566358655458" class="icon" viewBox="0 0 1024 1024" version="1.1" xmlns="http://www.w3.org/2000/svg" p-id="5325" xmlns:xlink="http://www.w3.org/1999/xlink" width="200" height="200"><defs><style type="text/css"></style></defs><path d="M426.666667 725.333333h42.666666v42.666667a42.666667 42.666667 0 0 0 85.333334 0v-42.666667h42.666666a42.666667 42.666667 0 0 0 0-85.333333h-42.666666v-42.666667a42.666667 42.666667 0 0 0-85.333334 0v42.666667h-42.666666a42.666667 42.666667 0 0 0 0 85.333333z m384-469.333333h-85.333334V213.333333a128 128 0 0 0-128-128h-170.666666a128 128 0 0 0-128 128v42.666667H213.333333a128 128 0 0 0-128 128v426.666667a128 128 0 0 0 128 128h597.333334a128 128 0 0 0 128-128V384a128 128 0 0 0-128-128zM384 213.333333a42.666667 42.666667 0 0 1 42.666667-42.666666h170.666666a42.666667 42.666667 0 0 1 42.666667 42.666666v42.666667H384z m469.333333 597.333334a42.666667 42.666667 0 0 1-42.666666 42.666666H213.333333a42.666667 42.666667 0 0 1-42.666666-42.666666v-298.666667h682.666666z m0-384H170.666667V384a42.666667 42.666667 0 0 1 42.666666-42.666667h597.333334a42.666667 42.666667 0 0 1 42.666666 42.666667z" p-id="5326"></path></svg>