<?xml version="1.0" standalone="no"?><!DOCTYPE svg PUBLIC "-//W3C//DTD SVG 1.1//EN" "http://www.w3.org/Graphics/SVG/1.1/DTD/svg11.dtd"><svg t="1566372713197" class="icon" viewBox="0 0 1024 1024" version="1.1" xmlns="http://www.w3.org/2000/svg" p-id="3478" width="128" height="128" xmlns:xlink="http://www.w3.org/1999/xlink"><defs><style type="text/css"></style></defs><path d="M791.996019 611.259678 634.217552 611.259678c-45.000913 0-81.478709 44.438095-81.478709 99.257631l0 192.207603L791.996019 611.259678l45.440935 55.355749L597.821621 958.523753l-45.081755-54.91982 0 55.053873-285.174971 0c-45.000913 0-81.478709-44.432978-81.478709-99.252515L186.086186 164.594709c0-54.815443 36.477796-99.252515 81.478709-99.252515l488.871233 0c44.99682 0 81.478709 44.438095 81.478709 99.252515l0 446.664969L791.996019 611.259678zM328.673671 561.626257l122.217552 0c11.248182 0 20.369933-11.106965 20.369933-24.809035 0-13.707187-9.121751-24.814152-20.369933-24.814152L328.673671 512.00307c-11.252275 0-20.369933 11.106965-20.369933 24.814152C308.303738 550.519292 317.421396 561.626257 328.673671 561.626257zM695.326329 214.229153 328.673671 214.229153c-11.252275 0-20.369933 11.106965-20.369933 24.814152 0 13.70207 9.117658 24.814152 20.369933 24.814152l366.652657 0c11.248182 0 20.369933-11.112082 20.369933-24.814152C715.696262 225.336118 706.57451 214.229153 695.326329 214.229153zM695.326329 363.110995 328.673671 363.110995c-11.252275 0-20.369933 11.112082-20.369933 24.814152 0 13.707187 9.117658 24.819269 20.369933 24.819269l366.652657 0c11.248182 0 20.369933-11.112082 20.369933-24.819269C715.696262 374.222053 706.57451 363.110995 695.326329 363.110995z" p-id="3479"></path></svg>