<?xml version="1.0" standalone="no"?><!DOCTYPE svg PUBLIC "-//W3C//DTD SVG 1.1//EN" "http://www.w3.org/Graphics/SVG/1.1/DTD/svg11.dtd"><svg t="1567049072189" class="icon" viewBox="0 0 1024 1024" version="1.1" xmlns="http://www.w3.org/2000/svg" p-id="2709" xmlns:xlink="http://www.w3.org/1999/xlink" width="128" height="128"><defs><style type="text/css"></style></defs><path d="M80.323397 958.025403c-9.185196 1.695618-17.166985-6.446829-15.288195-15.597233l48.28982-235.249909c1.288343-6.274914 9.036817-8.599865 13.56597-4.070712l197.129706 197.123566c4.581342 4.581342 2.143826 12.421914-4.227278 13.597693L80.323397 958.025403zM666.200988 142.702096l218.518852 218.500433 57.325613-57.32152c22.4892-22.488177 22.490224-58.950623 0.001023-81.4388L804.972565 85.37239c-22.487154-22.487154-58.94653-22.487154-81.434707-0.001023L666.200988 142.702096zM383.824759 862.081237l451.918623-451.894064L617.229646 191.672414 165.305907 643.582851 383.824759 862.081237z" p-id="2710"></path></svg>