<?xml version="1.0" standalone="no"?><!DOCTYPE svg PUBLIC "-//W3C//DTD SVG 1.1//EN" "http://www.w3.org/Graphics/SVG/1.1/DTD/svg11.dtd"><svg t="1566358739964" class="icon" viewBox="0 0 1024 1024" version="1.1" xmlns="http://www.w3.org/2000/svg" p-id="6145" xmlns:xlink="http://www.w3.org/1999/xlink" width="200" height="200"><defs><style type="text/css"></style></defs><path d="M874.666667 147.2c-108.8-108.8-283.733333-108.8-392.533334 0L147.2 482.133333c-108.8 108.8-108.8 283.733333 0 392.533334 53.333333 53.333333 125.866667 81.066667 196.266667 81.066666s142.933333-27.733333 196.266666-81.066666L874.666667 539.733333c106.666667-108.8 106.666667-283.733333 0-392.533333zM509.866667 844.8c-91.733333 91.733333-241.066667 91.733333-332.8 0S85.333333 603.733333 177.066667 512l151.466666-151.466667L661.333333 691.2l-151.466666 153.6z m334.933333-334.933333L691.2 661.333333 358.4 330.666667 512 177.066667c44.8-44.8 106.666667-68.266667 166.4-68.266667s119.466667 23.466667 166.4 68.266667c89.6 91.733333 89.6 241.066667 0 332.8z" fill="#666666" p-id="6146"></path><path d="M558.933333 211.2l-29.866666 29.866667c-8.533333 8.533333-8.533333 21.333333 0 29.866666 4.266667 4.266667 10.666667 6.4 14.933333 6.4s10.666667-2.133333 14.933333-6.4l29.866667-29.866666c21.333333-21.333333 53.333333-34.133333 83.2-34.133334s61.866667 12.8 83.2 34.133334c8.533333 8.533333 21.333333 8.533333 29.866667 0s8.533333-21.333333 0-29.866667C725.333333 149.333333 620.8 149.333333 558.933333 211.2z" fill="#666666" p-id="6147"></path><path d="M484.266667 326.4m-32 0a32 32 0 1 0 64 0 32 32 0 1 0-64 0Z" fill="#666666" p-id="6148"></path></svg>