<?xml version="1.0" standalone="no"?><!DOCTYPE svg PUBLIC "-//W3C//DTD SVG 1.1//EN" "http://www.w3.org/Graphics/SVG/1.1/DTD/svg11.dtd"><svg t="1566374038255" class="icon" viewBox="0 0 1024 1024" version="1.1" xmlns="http://www.w3.org/2000/svg" p-id="28617" xmlns:xlink="http://www.w3.org/1999/xlink" width="128" height="128"><defs><style type="text/css"></style></defs><path d="M926.661068 62.631456 97.340979 62.631456c-19.036565 0-34.951023 15.485693-34.951023 34.7085l0 829.534983c0 19.005866 15.914458 34.491559 34.951023 34.491559l829.320089 0c19.058055 0 34.948977-15.485693 34.948977-34.491559L961.610044 97.340979C961.610044 78.117149 945.720146 62.631456 926.661068 62.631456L926.661068 62.631456zM292.195875 892.27491 292.195875 892.27491 131.832538 892.27491l0-67.774593 51.347458 0c19.196201 0 34.7085-15.752776 34.7085-34.869159 0-19.113313-15.512299-34.599006-34.7085-34.599006l-51.347458 0L131.832538 639.269615l51.347458 0c19.196201 0 34.7085-15.512299 34.7085-34.841529 0-18.926048-15.512299-34.602076-34.7085-34.602076l-51.347458 0L131.832538 454.06552l51.347458 0c19.196201 0 34.7085-15.485693 34.7085-34.628682 0-18.926048-15.512299-34.599006-34.7085-34.599006l-51.347458 0L131.832538 269.074272l51.347458 0c19.196201 0 34.7085-15.270798 34.7085-34.868135 0-18.871813-15.512299-34.356482-34.7085-34.356482l-51.347458 0 0-68.017116 160.363338 0L292.195875 892.27491 292.195875 892.27491zM892.139833 892.27491 892.139833 892.27491 333.542562 892.27491 333.542562 131.832538l558.597271 0L892.139833 892.27491 892.139833 892.27491zM471.538473 713.119577 471.538473 713.119577l282.418184 0c11.479449 0 21.051455-9.596566 21.051455-21.103644l0-30.40652c0-14.730493-3.174296-29.194926-8.873088-42.260499-5.539156-13.148461-13.764492-25.971511-23.873734-35.837206-9.759271-10.268878-22.582321-18.549471-36.291554-23.981181l-4.894474-2.205225 3.762697-3.198855c23.25668-23.091928 37.638225-55.972802 37.638225-91.78238 0-35.620265-14.381545-68.204381-37.638225-91.243097-23.603581-23.579021-56.401568-38.229696-92.184539-38.229696-35.8106 0-68.15117 14.650675-91.325985 38.229696-23.711028 23.039739-38.281885 55.622832-38.281885 91.243097 0 35.8106 14.570857 68.691475 38.281885 91.78238l2.824325 3.198855c-15.432481 5.646604-29.197996 14.46341-40.892339 26.185382-9.946536 9.866718-18.334577 22.689768-24.115234 35.837206-5.269004 13.065574-8.4126 27.528983-8.4126 42.260499l0 30.40652C450.731588 703.523011 460.059024 713.119577 471.538473 713.119577L471.538473 713.119577zM550.283931 400.081001 550.283931 400.081001c15.914458-16.049534 38.229696-25.753547 62.370513-25.753547 24.545022 0 46.64332 9.704013 62.747089 25.753547 15.727193 15.914458 25.673729 37.934984 25.673729 62.263066 0 24.545022-9.946536 46.672996-25.673729 62.802348-15.886829 15.270798-37.126572 25.297153-61.4567 25.538653l-2.232854 0c-24.088628-0.242524-45.729507-10.268878-61.429071-25.538653-15.71389-16.129352-25.673729-38.257326-25.673729-62.802348C524.609179 438.015985 534.570042 415.995459 550.283931 400.081001L550.283931 400.081001zM492.320798 661.609413 492.320798 661.609413c0-9.301853 1.775436-18.497283 5.296633-25.996071 3.119037-8.873088 8.41567-16.264429 15.028275-23.121604 12.420891-12.259208 30.136368-20.349467 49.519834-20.349467l101.984742 0c9.28855 0 18.134009 2.229784 26.52205 5.431709 8.225335 3.656273 15.699564 8.627495 22.367427 14.917758 6.197142 6.857175 11.479449 14.249539 15.055904 23.121604 3.306302 7.498788 5.293563 16.694217 5.293563 25.996071l0 9.81453L492.320798 671.423943 492.320798 661.609413 492.320798 661.609413z" p-id="28618"></path></svg>